<?xml version="1.0" encoding="UTF-8"?>
<svg id="uuid-fff4b7b4-d017-4586-864f-77b912e3e493" data-name="Layer 1" xmlns="http://www.w3.org/2000/svg" viewBox="0 0 16 16">
  <rect x=".25" y=".25" width="15.5" height="15.5" rx="1.48" ry="1.48" fill="#fff" stroke-width="0"/>
  <g>
    <path d="M2.86,11.43c-.6-.11-1.03-.68-1.03-1.35V3.74c0-.1-.07-.18-.17-.18-.09,0-.18,0-.26,0-.09,0-.16.09-.16.18v6.77c0,.67.43,1.24,1.03,1.35.02,0,.03,0,.05,0,0,0,.01,0,.02,0,.81.06,1.78.23,2.82.63.61.23,1.15.5,1.64.78v-.02c-.65-.52-1.53-1.09-2.65-1.49-.46-.16-.89-.27-1.29-.35Z" fill="#ff6a00" stroke-width="0"/>
    <path d="M7.8,5.55c0-.51-.22-.99-.58-1.28-.49-.4-1.15-.83-1.99-1.15-.84-.32-1.6-.43-2.19-.45-.38-.01-.7.33-.7.77v6.35c0,.59.38,1.09.89,1.17.43.07.9.19,1.39.37,1.48.53,2.55,1.39,3.19,2v-5.9l-2.91-1.47v4.19l-.46-.13c-.24-.07-.41-.31-.41-.58v-5s3.78,1.92,3.78,1.92v-.81Z" fill="#000" stroke-width="0"/>
    <path d="M13.14,11.43c.6-.11,1.03-.68,1.03-1.35V3.74c0-.1.07-.18.17-.18.09,0,.18,0,.26,0,.09,0,.16.09.16.18v6.77c0,.67-.43,1.24-1.03,1.35-.02,0-.03,0-.05,0,0,0-.01,0-.02,0-.81.06-1.78.23-2.82.63-.61.23-1.15.5-1.64.78v-.02c.65-.52,1.53-1.09,2.65-1.49.46-.16.89-.27,1.29-.35Z" fill="#ff6a00" stroke-width="0"/>
    <path d="M8.2,5.55c0-.51.22-.99.58-1.28.49-.4,1.15-.83,1.99-1.15.84-.32,1.6-.43,2.19-.45.38-.01.7.33.7.77v6.35c0,.59-.38,1.09-.89,1.17-.43.07-.9.19-1.39.37-1.48.53-2.55,1.39-3.19,2v-5.9s2.91-1.47,2.91-1.47v4.19s.46-.13.46-.13c.24-.07.41-.31.41-.58v-4.94s0-.06,0-.06l-3.79,1.92v-.81Z" fill="#000" stroke-width="0"/>
  </g>
</svg>