<?xml version="1.0" encoding="UTF-8"?>
<svg id="uuid-311c91cf-70f8-4856-9905-e8ac6fd6567f" data-name="Layer 1" xmlns="http://www.w3.org/2000/svg" viewBox="0 0 16 16">
  <path d="M2.31,11.8c-.66-.12-1.14-.76-1.14-1.5V3.28c0-.11-.08-.2-.18-.2-.1,0-.2,0-.29,0-.1,0-.18.09-.18.2v7.5c0,.74.48,1.38,1.14,1.5.02,0,.04,0,.05.01,0,0,.01,0,.02,0,.9.07,1.97.26,3.13.69.67.25,1.28.55,1.81.86v-.03c-.72-.57-1.69-1.21-2.93-1.65-.5-.18-.98-.3-1.42-.38Z" fill="#ff6a00" stroke-width="0"/>
  <path d="M7.78,5.29c0-.56-.24-1.09-.65-1.42-.54-.44-1.28-.92-2.21-1.27-.92-.35-1.77-.47-2.43-.49-.43-.02-.78.37-.78.85v7.03c0,.65.42,1.2.99,1.3.47.08.99.21,1.54.41,1.64.59,2.82,1.54,3.53,2.21v-6.53l-3.22-1.63v4.64l-.51-.14c-.27-.07-.46-.34-.46-.65v-5.53s4.19,2.12,4.19,2.12v-.89Z" fill="#000" stroke-width="0"/>
  <path d="M13.69,11.8c.66-.12,1.14-.76,1.14-1.5V3.28c0-.11.08-.2.18-.2.1,0,.2,0,.29,0,.1,0,.18.09.18.2v7.5c0,.74-.48,1.38-1.14,1.5-.02,0-.04,0-.05.01,0,0-.01,0-.02,0-.9.07-1.97.26-3.13.69-.67.25-1.28.55-1.81.86v-.03c.72-.57,1.69-1.21,2.93-1.65.5-.18.98-.3,1.42-.38Z" fill="#ff6a00" stroke-width="0"/>
  <path d="M8.22,5.29c0-.56.24-1.09.65-1.42.54-.44,1.28-.92,2.21-1.27.92-.35,1.77-.47,2.43-.49.43-.02.78.37.78.85v7.03c0,.65-.42,1.2-.99,1.3-.47.08-.99.21-1.54.41-1.64.59-2.82,1.54-3.53,2.21v-6.53s3.22-1.63,3.22-1.63v4.64s.51-.14.51-.14c.27-.07.46-.34.46-.65v-5.47s0-.07,0-.07l-4.19,2.12v-.89Z" fill="#000" stroke-width="0"/>
</svg>