<?xml version="1.0" encoding="UTF-8"?>
<svg id="uuid-08e66dea-65c8-487c-80db-50b7f0892a99" data-name="Layer 1" xmlns="http://www.w3.org/2000/svg" viewBox="0 0 1000 150">
  <g>
    <path d="M60.59,113.23c-6.64-1.23-11.5-7.6-11.5-15.08V27.57c0-1.13-.83-2.05-1.85-2.05-1.04,0-2.02.03-2.94.07-.98.04-1.76.95-1.76,2.04v75.37c0,7.45,4.83,13.83,11.45,15.07.18.03.36.07.54.1.06.01.12.02.18.02,9.01.69,19.78,2.6,31.44,6.98,6.77,2.54,12.84,5.54,18.23,8.69v-.25c-7.19-5.77-17.01-12.14-29.46-16.54-5.07-1.79-9.88-3.02-14.32-3.84Z" fill="#ff6a00" stroke-width="0"/>
    <path d="M115.58,47.76c0-5.66-2.42-10.98-6.5-14.27-5.46-4.4-12.86-9.25-22.17-12.8-9.3-3.54-17.76-4.73-24.43-4.98-4.28-.16-7.83,3.7-7.83,8.53v70.65c0,6.53,4.22,12.09,9.94,13.08,4.76.82,9.98,2.11,15.51,4.09,16.53,5.93,28.37,15.44,35.49,22.24v-65.68l-32.38-16.39v46.67l-5.17-1.42c-2.69-.74-4.57-3.41-4.57-6.49v-54.97l-.05-.66,42.18,21.34v-8.96Z" fill="#000" stroke-width="0"/>
    <path d="M175,113.23c6.64-1.23,11.5-7.6,11.5-15.08V27.57c0-1.13.83-2.05,1.85-2.05,1.04,0,2.02.03,2.94.07.98.04,1.76.95,1.76,2.04v75.37c0,7.45-4.83,13.83-11.45,15.07-.18.03-.36.07-.54.1-.06.01-.12.02-.18.02-9.01.69-19.78,2.6-31.44,6.98-6.77,2.54-12.84,5.54-18.23,8.69v-.25c7.19-5.77,17.01-12.14,29.46-16.54,5.07-1.79,9.88-3.02,14.32-3.84Z" fill="#ff6a00" stroke-width="0"/>
    <path d="M120.01,47.76c0-5.66,2.42-10.98,6.5-14.27,5.46-4.4,12.86-9.25,22.17-12.8,9.3-3.54,17.76-4.73,24.43-4.98,4.28-.16,7.83,3.7,7.83,8.53v70.65c0,6.53-4.22,12.09-9.94,13.08-4.76.82-9.98,2.11-15.51,4.09-16.53,5.93-28.37,15.44-35.49,22.24v-65.68s32.38-16.39,32.38-16.39v46.67s5.17-1.42,5.17-1.42c2.69-.74,4.57-3.41,4.57-6.49v-54.97s.05-.66.05-.66l-42.18,21.34v-8.96Z" fill="#000" stroke-width="0"/>
  </g>
  <g>
    <path d="M230.96,32.03l19.03,46.42h.81l19.03-46.42h18.02v69.09h-14.17v-44.97h-.57l-17.88,44.63h-9.65l-17.88-44.8h-.57v45.14h-14.17V32.03h18.02Z" fill="#ff6a00" stroke-width="0"/>
    <path d="M313.95,101.13h-14.37v-51.82h13.7v9.14h.61c2.33-6.04,7.89-9.82,15.59-9.82,10.8,0,17.88,7.42,17.88,19.5v33h-14.37v-30.43c.03-6.34-3.44-10.12-9.21-10.12s-9.78,3.91-9.82,10.59v29.96Z" fill="#ff6a00" stroke-width="0"/>
    <path d="M356.59,119.07l3.24-10.73c5.06,1.55,8.67,1.32,10.56-3.54l.84-2.19-18.59-53.3h15.11l10.73,38.06h.54l10.83-38.06h15.22l-20.14,57.42c-2.94,8.37-8.6,13.83-19.3,13.83-3.64,0-6.98-.61-9.04-1.48Z" fill="#ff6a00" stroke-width="0"/>
    <path d="M411.89,35.34c0-3.98,3.51-7.25,7.76-7.25s7.79,3.27,7.79,7.25-3.51,7.29-7.79,7.29-7.76-3.27-7.76-7.29ZM412.43,49.31h14.37v51.82h-14.37v-51.82Z" fill="#ff6a00" stroke-width="0"/>
    <path d="M452.64,101.13h-14.37V32.03h14.37v69.09Z" fill="#ff6a00" stroke-width="0"/>
    <path d="M463.57,35.34c0-3.98,3.51-7.25,7.76-7.25s7.79,3.27,7.79,7.25-3.51,7.29-7.79,7.29-7.76-3.27-7.76-7.29ZM464.11,49.31h14.37v51.82h-14.37v-51.82Z" fill="#ff6a00" stroke-width="0"/>
    <path d="M504.32,101.13h-14.37v-51.82h13.7v9.14h.61c2.33-6.04,7.89-9.82,15.59-9.82,10.79,0,17.88,7.42,17.88,19.5v33h-14.37v-30.43c.03-6.34-3.44-10.12-9.21-10.12s-9.78,3.91-9.82,10.59v29.96Z" fill="#ff6a00" stroke-width="0"/>
    <path d="M548.68,107.2l13.29-1.79c1.18,3.14,4.39,5.9,10.73,5.9s10.8-2.77,10.8-9.88v-9.48h-.61c-1.89,4.28-6.51,8.43-14.78,8.43-11.67,0-21.02-8.03-21.02-25.27s9.62-26.48,20.98-26.48c8.67,0,12.89,5.16,14.81,9.38h.54v-8.7h14.27v52.33c0,13.26-10.53,20.01-25.34,20.01-13.97,0-21.96-6.28-23.68-14.44ZM583.57,75.05c0-9.08-3.91-14.98-10.9-14.98s-10.9,6.17-10.9,14.98,3.85,14.54,10.9,14.54,10.9-5.4,10.9-14.54Z" fill="#ff6a00" stroke-width="0"/>
    <path d="M606.74,86.65c0-11.57,9.21-15.01,19.47-15.96,9.01-.88,12.55-1.32,12.55-4.66v-.2c0-4.25-2.8-6.71-7.69-6.71-5.16,0-8.23,2.53-9.21,5.97l-13.29-1.08c1.99-9.45,10.16-15.38,22.57-15.38,11.54,0,22,5.2,22,17.54v34.95h-13.63v-7.19h-.41c-2.53,4.82-7.49,8.17-15.15,8.17-9.89,0-17.21-5.2-17.21-15.45ZM638.86,82.6v-5.5c-1.72,1.15-6.85,1.89-9.99,2.33-5.06.71-8.4,2.7-8.4,6.75s3.17,6.01,7.59,6.01c6.31,0,10.8-4.15,10.8-9.58Z" fill="#ff6a00" stroke-width="0"/>
    <path d="M686.6,32.03h27.67c15.25,0,22.94,7.35,22.94,17.71,0,8.13-5.3,13.23-12.48,14.84v.67c7.86.37,15.18,6.55,15.18,16.77,0,11-8.27,19.1-23.78,19.1h-29.52V32.03ZM712.03,60.94c5.97,0,10.42-3.31,10.42-8.77,0-4.99-3.68-8.33-10.16-8.33h-11.1v17.1h10.83ZM713.11,89.18c8.17,0,11.71-3.41,11.71-8.6,0-5.7-4.35-9.75-11.37-9.75h-12.25v18.35h11.91Z" fill="#000" stroke-width="0"/>
    <path d="M747.02,75.42c0-16.06,9.78-26.79,25.51-26.79s25.5,10.73,25.5,26.79-9.78,26.72-25.5,26.72-25.51-10.76-25.51-26.72ZM783.42,75.32c0-9.04-3.71-15.72-10.83-15.72s-10.96,6.68-10.96,15.72,3.71,15.69,10.96,15.69,10.83-6.65,10.83-15.69Z" fill="#000" stroke-width="0"/>
    <path d="M805.31,75.42c0-16.06,9.78-26.79,25.5-26.79s25.51,10.73,25.51,26.79-9.78,26.72-25.51,26.72-25.5-10.76-25.5-26.72ZM841.71,75.32c0-9.04-3.71-15.72-10.83-15.72s-10.96,6.68-10.96,15.72,3.71,15.69,10.96,15.69,10.83-6.65,10.83-15.69Z" fill="#000" stroke-width="0"/>
    <path d="M865.7,32.03h14.37v36.94h.78l16.6-19.67h16.5l-19.23,22.44,20.21,29.39h-16.83l-14.14-20.88-3.88,4.42v16.46h-14.37V32.03Z" fill="#000" stroke-width="0"/>
    <path d="M950.92,64.89c-.71-3.34-3.68-6.07-8.67-6.07-4.45,0-7.96,2.02-7.93,5.13-.03,2.5,1.75,4.15,6.58,5.2l9.38,1.89c10.05,2.06,14.95,6.54,14.98,14.03-.03,10.22-9.65,17.07-23.08,17.07s-22.17-6.11-23.51-16.03l14.14-.74c.88,4.22,4.28,6.41,9.41,6.41s8.37-2.19,8.43-5.26c-.07-2.6-2.12-4.25-6.65-5.16l-8.97-1.79c-10.12-2.02-15.01-7.05-14.98-14.81-.03-9.99,8.7-16.13,21.96-16.13s20.78,5.9,22.06,15.45l-13.16.81Z" fill="#000" stroke-width="0"/>
  </g>
</svg>